<svg width="760" height="530" viewBox="0 0 760 530" fill="none" xmlns="http://www.w3.org/2000/svg">
<g clip-path="url(#clip0_98_1533)">
<path d="M-1227.27 -87.1612C-1234.36 -50.7439 -1227.43 -9.15826 -1207.35 21.9931C-1156.99 100.175 -1045.77 95.4727 -965.826 81.0923C-797.358 50.8092 -637.025 -15.5764 -467.775 -44.6677C-311.494 -71.5351 -130.441 -75.6822 -10.5702 45.708C98.6136 156.272 142.717 331.011 62.7582 470.141C17.7466 548.412 -100.113 658.411 -200.474 614.841C-279.903 580.348 -219.781 475.671 -184.516 431.296C-111.678 339.638 -0.599707 275.759 113.019 250.914C270.547 216.521 448.299 258.281 575.675 356.815C629.522 398.519 683.118 454.712 710.395 518.442C715.839 531.124 745.965 530.306 739.084 514.246C656.966 322.298 419.152 218.527 222.848 216.443C94.0783 215.05 -34.016 260.949 -134.435 341.297C-195.869 390.473 -279.099 474.975 -269.194 562.106C-259.422 648.21 -152.057 655.202 -87.4079 633.826C26.851 596.061 113.853 484.093 131.535 366.597C154.382 214.695 66.7575 51.074 -64.2126 -25.2569C-206.992 -108.487 -385.764 -87.7689 -540.134 -55.0062C-638.241 -34.1714 -734.585 -5.90332 -831.012 21.4531C-918.442 46.2286 -1020.81 84.543 -1112.64 60.5675C-1175.67 44.1382 -1209.51 -16.4635 -1197.22 -79.5415C-1194.38 -94.1278 -1224.45 -101.584 -1227.27 -87.1612Z" fill="url(#paint0_linear_98_1533)"/>
</g>
<defs>
<linearGradient id="paint0_linear_98_1533" x1="-1064.23" y1="1.9484" x2="824.864" y2="467.112" gradientUnits="userSpaceOnUse">
<stop stop-color="white" stop-opacity="0"/>
<stop offset="0.53491" stop-color="#F37362"/>
<stop offset="0.905" stop-color="white" stop-opacity="0"/>
</linearGradient>
<clipPath id="clip0_98_1533">
<rect width="760" height="530" fill="white"/>
</clipPath>
</defs>
</svg>
